<svg xmlns="http://www.w3.org/2000/svg" viewBox="0 0 512 512">
  <rect width="512" height="512" fill="white"/>

  <!-- Mountain / A shape -->
  <path d="M255 105 L125 350 C105 378 85 392 60 398
           C95 418 130 392 160 360 L250 245 L285 315
           L350 305 L302 218 L330 218 L285 105 Z"
        fill="#061f5b"/>

  <!-- Dark wave -->
  <path d="M100 405 C180 360 250 310 370 325
           C315 330 245 355 165 410
           C135 430 115 420 100 405 Z"
        fill="#061f5b"/>

  <!-- Blue wave -->
  <path d="M90 430 C180 445 265 425 345 370
           C370 354 395 350 425 358
           C340 415 250 455 90 430 Z"
        fill="#0072ce"/>

  <!-- Light blue wave -->
  <path d="M255 440 C320 428 370 400 430 360
           C448 365 462 372 475 382
           C400 430 340 455 255 440 Z"
        fill="#19aee5"/>
</svg>
