<svg xmlns="http://www.w3.org/2000/svg" viewBox="0 0 512 512">
  <rect width="512" height="512" fill="white"/>

  <!-- Main A shape -->
  <path d="
    M260 95
    L120 340
    Q105 365 78 388
    Q115 392 145 360
    L255 170
    L390 388
    L330 388
    L255 265
    L205 350
    L160 350
    L245 210
    L300 210
    L325 170
    L300 170
    L285 145
    L315 145
    Z"
    fill="#001e62"/>

  <!-- Dark navy wave -->
  <path d="
    M150 360
    C235 320 320 305 430 325
    C335 322 250 345 175 392
    C160 401 148 395 150 360
    Z"
    fill="#001e62"/>

  <!-- Blue wave -->
  <path d="
    M110 410
    C205 428 310 405 395 345
    C420 330 445 328 468 338
    C380 405 275 445 110 410
    Z"
    fill="#0b66d4"/>

  <!-- Light blue wave -->
  <path d="
    M245 430
    C325 418 390 382 455 335
    C470 340 482 348 492 357
    C420 415 345 448 245 430
    Z"
    fill="#22b8f0"/>
</svg>
