<svg xmlns="http://www.w3.org/2000/svg" viewBox="0 0 512 512">
  <rect width="512" height="512" fill="white"/>

  <!-- Main navy A -->
  <path d="
    M255 75
    L382 310
    L320 310
    L262 205
    L190 330
    Q160 382 95 392
    Q128 365 150 328
    Z"
    fill="#071c5c"/>

  <!-- Small top-right notch -->
  <path d="
    M276 105
    L325 150
    L300 178
    L340 178
    L360 215
    L310 215
    L250 115
    Z"
    fill="#071c5c"/>

  <!-- Inner white triangle cutout -->
  <path d="
    M260 220
    L305 305
    L215 305
    Z"
    fill="white"/>

  <!-- Dark navy wave -->
  <path d="
    M145 365
    C230 315 310 295 430 305
    C335 310 250 335 165 390
    C145 402 130 392 145 365
    Z"
    fill="#071c5c"/>

  <!-- Blue wave -->
  <path d="
    M110 410
    C210 430 300 400 385 345
    C405 332 430 330 455 338
    C365 405 255 445 110 410
    Z"
    fill="#0876c9"/>

  <!-- Light blue wave -->
  <path d="
    M245 430
    C320 420 380 390 440 345
    C458 350 472 358 485 368
    C415 420 340 448 245 430
    Z"
    fill="#21b6e8"/>
</svg>
