<svg xmlns="http://www.w3.org/2000/svg" viewBox="0 0 100 100">
  <path d="M36 8
           L14 70
           L30 70
           L33 62
           L39 62
           L42 70
           L60 70
           Q74 70 84 64
           Q76 56 66 50
           Q56 42 50 32
           Z"
        fill="#0a1f4f"/>
  <path d="M36 22
           L28 56
           L44 56
           Z"
        fill="#ffffff"/>
  <path d="M4 72
           C20 66, 36 76, 52 72
           C68 68, 82 76, 96 70
           L96 78
           C82 82, 66 76, 50 80
           C34 82, 18 78, 4 80
           Z"
        fill="#0a1f4f"/>
  <path d="M4 80
           C20 74, 36 82, 52 78
           C68 74, 82 82, 96 78
           L96 90
           C82 92, 66 86, 50 90
           C34 92, 18 86, 4 90
           Z"
        fill="#1e90ff"/>
</svg>
